<?xml version="1.0" encoding="UTF-8" standalone="no"?>
<!-- Created with Inkscape (http://www.inkscape.org/) -->

<svg
   xmlns:dc="http://purl.org/dc/elements/1.1/"
   xmlns:cc="http://creativecommons.org/ns#"
   xmlns:rdf="http://www.w3.org/1999/02/22-rdf-syntax-ns#"
   xmlns:svg="http://www.w3.org/2000/svg"
   xmlns="http://www.w3.org/2000/svg"
   xmlns:sodipodi="http://sodipodi.sourceforge.net/DTD/sodipodi-0.dtd"
   xmlns:inkscape="http://www.inkscape.org/namespaces/inkscape"
   width="450"
   height="100"
   id="svg2"
   version="1.1"
   inkscape:version="0.48.2 r9819"
   sodipodi:docname="perlschool.svg">
  <defs
     id="defs4">
    <marker
       markerWidth="532.14288"
       markerHeight="127.85715"
       orient="auto"
       id="marker3765">
      <rect
         y="-63.928574"
         x="-266.07144"
         height="127.85715"
         width="532.14288"
         id="rect3761"
         style="fill:#000000" />
    </marker>
    <marker
       markerWidth="532.85712"
       markerHeight="125.71429"
       orient="auto"
       id="marker3770">
      <rect
         y="-62.857143"
         x="-266.42856"
         height="125.71429"
         width="532.85712"
         id="rect3768"
         style="fill:#000000" />
    </marker>
  </defs>
  <sodipodi:namedview
     id="base"
     pagecolor="#ffffff"
     bordercolor="#666666"
     borderopacity="1.0"
     inkscape:pageopacity="0.0"
     inkscape:pageshadow="2"
     inkscape:zoom="1.4"
     inkscape:cx="253.94744"
     inkscape:cy="69.818594"
     inkscape:document-units="px"
     inkscape:current-layer="layer1"
     showgrid="true"
     inkscape:window-width="1101"
     inkscape:window-height="639"
     inkscape:window-x="85"
     inkscape:window-y="47"
     inkscape:window-maximized="0"
     objecttolerance="10000"
     guidetolerance="10000"
     inkscape:snap-global="true"
     inkscape:snap-bbox="true"
     inkscape:bbox-paths="true"
     inkscape:bbox-nodes="true"
     inkscape:snap-bbox-edge-midpoints="true"
     inkscape:snap-bbox-midpoints="true">
    <inkscape:grid
       type="xygrid"
       id="grid3775"
       empspacing="5"
       visible="true"
       enabled="true"
       snapvisiblegridlinesonly="true"
       spacingx="5px"
       spacingy="5px"
       dotted="true" />
  </sodipodi:namedview>
  <metadata
     id="metadata7">
    <rdf:RDF>
      <cc:Work
         rdf:about="">
        <dc:format>image/svg+xml</dc:format>
        <dc:type
           rdf:resource="http://purl.org/dc/dcmitype/StillImage" />
        <dc:title />
      </cc:Work>
    </rdf:RDF>
  </metadata>
  <g
     inkscape:label="Layer 1"
     inkscape:groupmode="layer"
     id="layer1"
     transform="translate(0,-952.36218)">
    <text
       xml:space="preserve"
       style="font-size:72px;font-style:normal;font-variant:normal;font-weight:normal;font-stretch:normal;line-height:125%;letter-spacing:0px;word-spacing:0px;fill:#000000;fill-opacity:1;stroke:none;font-family:Sans;-inkscape-font-specification:Sans"
       x="64.285713"
       y="72.85714"
       id="text3861"
       sodipodi:linespacing="125%"
       transform="translate(0,952.36218)"><tspan
         sodipodi:role="line"
         id="tspan3863"
         x="64.285713"
         y="72.85714" /></text>
    <g
       style="font-size:48px;font-style:normal;font-variant:normal;font-weight:500;font-stretch:normal;line-height:125%;letter-spacing:0px;word-spacing:0px;fill:#000000;fill-opacity:1;stroke:none;font-family:Rudiment;-inkscape-font-specification:Rudiment Medium"
       id="text3824">
      <path
         d="m 33.535993,972.8422 -2.952,0 c -10.22399,0 -10.295999,7.488 -9.648,13.464 l 0.72,6.768 c 0.575999,5.11199 0.935993,8.064 -6.192,8.064 l 0,2.448 c 5.543994,0 6.767999,2.952 6.192,8.064 l -0.72,6.768 c -0.647999,5.976 -0.57599,13.464 9.648,13.464 l 2.952,0 0,-2.448 c -5.831994,-0.288 -6.119999,-3.672 -5.616,-8.568 l 0.576,-5.544 c 0.575999,-5.76 1.943992,-11.016 -6.552,-12.744 l 0,-0.432 c 8.495992,-1.728 7.127999,-6.98401 6.552,-12.744 l -0.576,-5.544 c -0.503999,-4.896 -0.215994,-8.28 5.616,-8.568 l 0,-2.448"
         style="font-size:72px;font-weight:bold;font-family:Utopia;-inkscape-font-specification:Utopia Bold"
         id="path3029" />
    </g>
    <g
       transform="scale(-1,1)"
       style="font-size:48px;font-style:normal;font-variant:normal;font-weight:500;font-stretch:normal;line-height:125%;letter-spacing:0px;word-spacing:0px;fill:#000000;fill-opacity:1;stroke:none;font-family:Rudiment;-inkscape-font-specification:Rudiment Medium"
       id="text3824-1">
      <path
         d="m -416.46401,972.8422 -2.952,0 c -10.22399,0 -10.296,7.488 -9.648,13.464 l 0.72,6.768 c 0.576,5.11199 0.93599,8.064 -6.192,8.064 l 0,2.448 c 5.54399,0 6.768,2.952 6.192,8.064 l -0.72,6.768 c -0.648,5.976 -0.57599,13.464 9.648,13.464 l 2.952,0 0,-2.448 c -5.832,-0.288 -6.12,-3.672 -5.616,-8.568 l 0.576,-5.544 c 0.576,-5.76 1.94399,-11.016 -6.552,-12.744 l 0,-0.432 c 8.49599,-1.728 7.128,-6.98401 6.552,-12.744 l -0.576,-5.544 c -0.504,-4.896 -0.216,-8.28 5.616,-8.568 l 0,-2.448"
         style="font-size:72px;font-weight:bold;font-family:Utopia;-inkscape-font-specification:Utopia Bold"
         id="path3026" />
    </g>
    <g
       style="font-size:48px;font-style:normal;font-variant:normal;font-weight:500;font-stretch:normal;line-height:125%;letter-spacing:0px;word-spacing:0px;fill:#000000;fill-opacity:1;stroke:none;font-family:Rudiment;-inkscape-font-specification:Rudiment Medium"
       id="text3865">
      <path
         d="m 56.707993,984.68618 c 0,-2.016 0.576004,-2.664 4.248,-2.664 4.823995,0 8.928,3.24001 8.928,11.52 0,5.47199 -1.872007,11.88002 -9.144,11.88002 -2.807997,0 -4.032,-0.36 -4.032,-3.096 l 0,-17.64002 m 6.912,43.84802 0,-2.592 c -6.335994,-0.36 -6.912,-0.72 -6.912,-4.392 l 0,-12.816 4.32,0 c 6.767993,0 12.096003,-1.224 15.408,-3.6 3.599996,-2.592 5.544,-6.48003 5.544,-11.80802 0,-5.75999 -2.592004,-9.72 -6.12,-11.88 -3.527997,-2.16 -8.208006,-2.736 -14.04,-2.736 l -22.32,0 0,2.736 c 5.111995,0.216 5.688,0.576 5.688,4.248 l 0,35.85602 c 0,3.672 -0.576005,4.032 -5.688,4.248 l 0,2.736 24.12,0"
         style="font-weight:bold;fill:#008080;fill-opacity:1;-inkscape-font-specification:Utopia Bold"
         id="path3005" />
      <path
         d="m 117.14412,1017.4462 c -2.16,4.104 -5.25601,6.408 -9.648,6.408 -7.19999,0 -9.648002,-5.904 -9.648002,-13.464 l 18.576002,0 c 2.592,0 3.888,-0.72 3.888,-3.024 0,-5.904 -2.23202,-14.97602 -16.128,-14.97602 -12.959989,0 -17.784002,8.42402 -17.784002,18.50402 0,9.792 4.248013,18.576 17.640002,18.504 8.56799,0 13.248,-4.176 15.696,-10.512 l -2.592,-1.44 m -19.296002,-10.512 c 0,-5.184 1.368005,-11.23202 6.048002,-11.23202 4.39199,0 5.112,5.47202 5.112,8.85602 0,1.944 -0.576,2.376 -2.232,2.376 l -8.928002,0"
         style="font-weight:bold;fill:#008080;fill-opacity:1;-inkscape-font-specification:Utopia Bold"
         id="path3007" />
      <path
         d="m 138.78237,1006.1422 c 0,-3.744 0.72,-5.4 2.448,-5.4 1.152,0 2.232,0.576 3.816,1.512 0.936,0.576 1.944,1.152 3.312,1.152 1.44,0 2.88,-0.792 3.672,-1.872 0.792,-1.08 1.152,-2.52002 1.152,-4.10402 0,-3.096 -2.01601,-5.04 -5.04,-5.04 -3.024,0 -5.40001,1.944 -9.576,6.336 l -0.864,-6.336 -14.04,2.088 0,2.592 2.52,0.36 c 1.152,0.144 1.728,0.792 1.728,3.67202 l 0,21.168 c 0,3.024 -0.57601,3.312 -4.68,3.528 l 0,2.736 21.744,0 0,-2.736 c -5.544,-0.288 -6.192,-0.504 -6.192,-3.528 l 0,-16.128"
         style="font-weight:bold;fill:#008080;fill-opacity:1;-inkscape-font-specification:Utopia Bold"
         id="path3009" />
      <path
         d="m 169.91899,975.54218 -0.504,-0.432 -14.616,1.944 0,2.592 2.52,0.432 c 1.152,0.216 1.728,0.864 1.728,3.744 l 0,38.44802 c 0,3.024 -0.576,3.312 -4.68,3.528 l 0,2.736 20.232,0 0,-2.736 c -4.10399,-0.216 -4.68,-0.504 -4.68,-3.528 l 0,-46.72802"
         style="font-weight:bold;fill:#008080;fill-opacity:1;-inkscape-font-specification:Utopia Bold"
         id="path3011" />
      <path
         d="m 195.70962,1025.2942 c 3.16799,2.952 9.144,4.32 14.184,4.32 12.74399,0 17.784,-7.272 17.784,-14.616 0,-8.496 -5.76001,-12.528 -14.184,-15.62402 l -2.304,-0.864 c -4.824,-1.8 -8.856,-4.896 -8.856,-9.216 0,-5.256 3.168,-9.144 9.216,-9.144 6.19199,0 9.648,3.52801 10.8,10.8 l 2.232,0 0,-10.152 c -2.448,-1.944 -7.34401,-3.168 -12.24,-3.168 -8.78399,0 -16.56,4.39201 -16.56,13.896 0,7.55999 6.04801,11.52002 13.608,14.18402 l 1.296,0.504 c 3.16799,1.224 10.008,4.536 10.008,10.944 0,6.192 -3.96001,9.936 -10.368,9.936 -6.768,0 -11.232,-5.256 -13.032,-13.32 l -2.304,0 0.72,11.52"
         style="font-size:72px;font-weight:normal;font-family:Utopia;-inkscape-font-specification:Utopia"
         id="path3013" />
      <path
         d="m 251.94274,1025.6542 c -8.56799,0 -10.584,-8.928 -10.584,-15.696 0,-10.72801 4.24801,-15.04802 9.216,-15.04802 3.312,0 5.4,2.376 6.84,6.26402 0.432,1.152 0.864,1.872 2.232,1.872 1.44,0 4.248,-0.936 4.248,-3.67202 0,-3.312 -4.752,-6.984 -12.528,-6.984 -13.10398,0 -17.496,9.28802 -17.496,18.86402 0,12.024 5.90401,18.144 16.704,18.144 5.04,0 11.808,-2.664 13.824,-10.368 l -2.088,-1.008 c -2.23199,5.04 -5.112,7.632 -10.368,7.632"
         style="font-size:72px;font-weight:normal;font-family:Utopia;-inkscape-font-specification:Utopia"
         id="path3015" />
      <path
         d="m 303.28549,1003.8382 c 0,-7.27201 -3.96,-11.44802 -10.656,-11.44802 -5.25599,0 -8.496,2.448 -13.032,5.472 l 0,-22.32 -0.504,-0.432 -11.232,1.8 0,1.8 2.736,0.36 c 1.872,0.288 2.304,0.648 2.304,3.24 l 0,39.96002 c 0.072,3.528 -0.288,3.816 -5.328,4.176 l 0,2.088 17.496,0 0,-2.088 c -4.96799,-0.36 -5.4,-0.648 -5.4,-4.176 l 0,-16.848 c 0,-1.8 0.072,-2.808 0.648,-3.888 1.512,-2.88002 4.82401,-5.25602 8.64,-5.25602 4.896,0 7.56,2.73601 7.56,9.00002 l 0,16.992 c 0,3.528 -0.36,3.816 -5.4,4.176 l 0,2.088 17.568,0 0,-2.088 c -4.96799,-0.36 -5.4,-0.648 -5.4,-4.176 l 0,-18.432"
         style="font-size:72px;font-weight:normal;font-family:Utopia;-inkscape-font-specification:Utopia"
         id="path3017" />
      <path
         d="m 330.53187,992.39018 c -11.51999,0 -17.208,6.84001 -17.208,18.50402 0,11.664 5.68801,18.504 17.208,18.504 11.66399,0 17.28,-6.84 17.28,-18.504 0,-11.66401 -5.61601,-18.50402 -17.28,-18.50402 m -9.72,18.50402 c 0,-9.936 3.168,-15.98402 9.72,-15.98402 6.69599,0 9.792,6.04802 9.792,15.98402 0,9.936 -3.09601,15.984 -9.792,15.984 -6.552,0 -9.72,-6.048 -9.72,-15.984"
         style="font-size:72px;font-weight:normal;font-family:Utopia;-inkscape-font-specification:Utopia"
         id="path3019" />
      <path
         d="m 372.01624,992.39018 c -11.51999,0 -17.208,6.84001 -17.208,18.50402 0,11.664 5.68801,18.504 17.208,18.504 11.66399,0 17.28,-6.84 17.28,-18.504 0,-11.66401 -5.61601,-18.50402 -17.28,-18.50402 m -9.72,18.50402 c 0,-9.936 3.16801,-15.98402 9.72,-15.98402 6.696,0 9.792,6.04802 9.792,15.98402 0,9.936 -3.096,15.984 -9.792,15.984 -6.55199,0 -9.72,-6.048 -9.72,-15.984"
         style="font-size:72px;font-weight:normal;font-family:Utopia;-inkscape-font-specification:Utopia"
         id="path3021" />
      <path
         d="m 406.37262,975.54218 -0.504,-0.432 -11.304,1.8 0,1.8 2.736,0.288 c 1.872,0.216 2.304,0.576 2.304,3.312 l 0,39.96002 c 0,3.672 -0.21601,3.816 -5.4,4.176 l 0,2.088 17.568,0 0,-2.088 c -5.112,-0.36 -5.4,-0.504 -5.4,-4.176 l 0,-46.72802"
         style="font-size:72px;font-weight:normal;font-family:Utopia;-inkscape-font-specification:Utopia"
         id="path3023" />
    </g>
  </g>
</svg>
